<svg xmlns="http://www.w3.org/2000/svg" width="454" height="124" viewBox="0 0 454.8 124" fill="rgba(242, 240, 236, 0.9)">
  <title>Grub Gallery</title>
  <path d="M61.4,45.1c0.5,0.7,0.5,1.6,0.2,2.4c-3.9,9.9-15.5,37.8-16,38.8c5.9,0.2,11-1.2,12.3-2.1c0-0.1,0-0.1,0.1-0.1
    c0,0,4.2,3.9-0.1,9.7c-7.2,1.6-13.3-1.1-14.9-1.9c-0.1,0.1-5.2,13.4-6,15.4c-3.5,8-8.8,16.4-20.9,16.4c-8,0-16.1-6.8-16.1-16.2
    c0-6.2,3.2-12.9,7.7-17.5c4.7-4.8,13.3-7,19.5-6.8c2.1,0,8.1,1.2,8.1,1.2s3-6.6,4-9c-2.7,1.7-8.5,3.3-11.1,3.3h-0.1
    c-11,0-21.8-7.4-21.8-20.8c0-11.8,6-26.1,15.5-38.2C31.5,7.4,45.6,0,55.3,0h0.3c6.9,0.2,11.7,4.5,11.7,10.6c0,4.8-2.3,9.9-6.3,14.1
    c-1.8,1.9-3.8,3.7-5.8,5.1c-1,0.3-1.9,0.2-2.8-0.1c-2.8-0.9-4.7-4.2-4.7-5.6c4.5-1.9,11.1-10.4,11.8-15.2c-0.8-1.1-1.9-1.2-2.9-1.2
    c-2.9,0-6.4,1.2-9.9,3.5c-4.5,3.5-9.3,8.2-12.8,12.7c-8.7,11.3-13.7,24.2-13.7,35.4c0,9.7,4.3,11,8.6,11
    c11.5,0,16.8-11.1,21.3-20.9l0.6-1.4c0.3-0.8,0.6-1.6,1-2.5C52.1,44.6,53,44,54,44h5.3C60.1,44,60.9,44.5,61.4,45.1z M24.5,109.7
    l7.4-17.2v-0.1c0.5-1,1-2.1,1.4-3.2c-2-0.5-5-1.2-6.6-1.2c-9.7,0-15,11.2-15,20c0,3.7,0.9,9,5.3,9C18.9,117,21.2,115.6,24.5,109.7z
    "/>
  <path class="st0" d="M94.6,60.1c-1.3,0-9.1-1.5-7.3-5c2.7-4.6,6.1-9.5,3.1-9.5c-5.7,0-10.3,8.5-12.3,12.8c-2.3,9-3.7,18.5-1.1,18.5
    c0,1.7-2.3,3.4-4.2,3.4c-20.8,0,0.2-38.2,0.3-38.7c0.8-1.7,8.7-1.4,11,1.6c-0.8,0.6-1.8,2.5-2.8,5.1c1.9-2.2,6.5-6.8,11.3-6.8
    C106.1,41.5,94.7,54.3,94.6,60.1z"/>
  <path class="st0" d="M132.5,76.9c0,1.7-2.4,3.4-4.3,3.4c-5,0-6.6-4.3-6.6-10c-3.2,5.1-7.9,10-13.8,10c-20.5,0,3.1-36.5-4.3-36.5
    c0.3-1.7,4.6-2.8,6.7-2.8c13.5,0-5.7,35.4-0.1,35.4c4.3,0,10.4-8.2,13.4-13.5c1.7-10.4,6.1-21,6.2-21.3c0.8-1.7,7.8-1.4,10.1,1.6
    C136.1,46.3,127.8,76.9,132.5,76.9z"/>
  <path class="st0" d="M155.7,80.2c-2,0-5.1-1.3-6.7-2.9l-1,1.1c-1.2,1.1-2.5,1.8-4.1,2.1c-1.3,0.2-2.8,0.1-4.4-0.5
    c-0.6-0.1-1.1-0.3-1.4-0.5c-0.2-0.1-0.3-0.2-0.4-0.2c-1.7-0.9-3-3.4-2.3-4.9c1.5,0.7,3.4-3.1,5.3-9c0.5-2,1.1-4.1,1.8-6.2
    c5.1-17.1,12.4-38.4,12.4-38.4c0-0.3,0.3-0.6,0.7-0.8c2.1-1.1,8.4-0.6,9.2,0.9l-6.9,24c0,0,3-3.5,7.1-3.5
    C183.9,41.4,177.8,80.2,155.7,80.2z M163.8,45c-3.7,0-7.3,7.7-8.9,11.9l-1,2.6c0,0-3.6,8.9-2,12.4c0.4,0.9,1.1,1.4,2.2,1.4
    C163.2,73.3,170.2,45,163.8,45z"/>
  <path class="st0" d="M263.9,45.1c0.5,0.7,0.5,1.6,0.2,2.4c-3.9,9.9-15.5,37.8-16,38.8c5.9,0.2,11-1.2,12.3-2.1c0-0.1,0-0.1,0.1-0.1
    c0,0,4.2,3.9-0.1,9.7c-7.2,1.6-13.3-1.1-14.9-1.9c-0.1,0.1-5.2,13.4-6,15.4c-3.5,8-8.8,16.4-20.9,16.4c-8,0-16.1-6.8-16.1-16.2
    c0-6.2,3.2-12.9,7.7-17.5c4.7-4.8,13.3-7,19.5-6.8c2.1,0,8.1,1.2,8.1,1.2s3-6.6,4-9c-2.7,1.7-8.5,3.3-11.1,3.3h-0.1
    c-11,0-21.8-7.4-21.8-20.8c0-11.8,6-26.1,15.5-38.2C234,7.4,248.1,0,257.8,0h0.3c6.9,0.2,11.7,4.5,11.7,10.6
    c0,4.8-2.3,9.9-6.3,14.1c-1.8,1.9-3.8,3.7-5.8,5.1c-1,0.3-1.9,0.2-2.8-0.1c-2.8-0.9-4.7-4.2-4.7-5.6c4.5-1.9,11.1-10.4,11.8-15.2
    c-0.8-1.1-1.9-1.2-2.9-1.2c-2.9,0-6.4,1.2-9.9,3.5c-4.5,3.5-9.3,8.2-12.8,12.7c-8.7,11.3-13.7,24.2-13.7,35.4c0,9.7,4.3,11,8.6,11
    c11.5,0,16.8-11.1,21.3-20.9l0.6-1.4c0.3-0.8,0.6-1.6,1-2.5c0.4-0.9,1.3-1.5,2.3-1.5h5.3C262.6,44,263.4,44.5,263.9,45.1z
     M227,109.7l7.4-17.2v-0.1c0.5-1,1-2.1,1.4-3.2c-2-0.5-5-1.2-6.6-1.2c-9.7,0-15,11.2-15,20c0,3.7,0.9,9,5.3,9
    C221.4,117,223.7,115.6,227,109.7z"/>
  <path class="st0" d="M301.1,81.7c0,1.7-3,4.8-6.9,4c-5.5-1.2-7.5-6-6.2-15.8c-2.3,3.8-8.6,10.5-14.8,10.5
    c-21.5,0-9.9-38.9,12.7-38.9c4.4,0,6.2,1.9,6.9,4.1c0.7-2.3,1.1-3.8,1.2-4c0.8-1.7,7.9-1.4,10.3,1.6
    C303.2,46.2,289.9,81.7,301.1,81.7z M289.4,59.2c0.3-1.3,0.5-2.5,1.1-4.9c1.4-6.7-0.3-9.3-3-9.3c-9,0-17.4,28.5-9.8,28.5
    C281.3,73.5,287.6,68.8,289.4,59.2z"/>
  <path class="st0" d="M331.1,20.9c-4.4,7-17.9,56.2-12.2,56.2c0,1.7-2.3,3.4-4.2,3.4c-8,0-10-5.3-9.6-12
    c0.7-10.4,16.1-47.7,16.1-47.7C321.6,18.7,330.1,19.1,331.1,20.9z"/>
  <path class="st0" d="M350.2,20.9c-4.4,7-17.9,56.2-12.2,56.2c0,1.7-2.3,3.4-4.2,3.4c-8,0-10-5.3-9.6-12
    c0.7-10.4,16.1-47.7,16.1-47.7C340.7,18.7,349.2,19.1,350.2,20.9z"/>
  <path class="st0" d="M375.4,61.5c0.1,1.8-4.8,18.9-19.6,18.9c-23.1,0-10.5-38.9,12-38.9c21.1,0,8.3,22.3-9.3,19.4
    c-0.3,0.5-3.5,12.6,1.5,12.6c3.4,0,9.2-1.5,11.7-10.8C373.5,61.1,375.4,60.6,375.4,61.5z M359.5,57.5c6.9,0,17.1-12.4,11.5-12.4
    C363.3,45.1,359,57.5,359.5,57.5z"/>
  <path class="st0" d="M410.8,60.1c-1.3,0-9.1-1.5-7.3-5c2.7-4.6,6.1-9.5,3.1-9.5c-5.7,0-10.3,8.5-12.3,12.8
    c-2.3,9-3.7,18.5-1.1,18.5c0,1.7-2.3,3.4-4.2,3.4c-20.8,0,0.2-38.2,0.3-38.7c0.8-1.7,8.7-1.4,11,1.6c-0.8,0.6-1.8,2.5-2.8,5.1
    c1.9-2.2,6.5-6.8,11.3-6.8C422.3,41.5,410.9,54.3,410.8,60.1z"/>
  <path class="st0" d="M454.8,43.2c-0.6,1.4-9,36.6-10.5,42.1c-4.9,17.6-14.2,39.3-30,38.7c-27,0-21.5-40.3,20.4-40.3
    c2-5.6,3.5-11,4.4-15.3c-3.1,5.7-8.4,11.9-14.9,11.9c-20.8,0,3-36.5-4.3-36.5c0.2-1.7,4.6-2.8,6.6-2.8c13.5,0-5.6,35.9-0.1,35.9
    c5.3,0,11.5-12.1,14-16.6c1.6-9.3,4.4-18.3,4.5-18.7C445.7,39.9,452.4,40.2,454.8,43.2z M433.2,87.8C412,87.8,401.9,117,412,117
    C422,117,430.2,95.7,433.2,87.8z"/>
</svg>
